<svg xmlns="http://www.w3.org/2000/svg" enable-background="new 0 0 24 24" viewBox="0 0 24 24" id="digital-ocean">
  <rect width="3.56" height="3.56" x="3.817" y="19.365"></rect>
  <path d="M4.647,12c0-4.932,4.88-8.745,10.07-6.862c1.92,0.696,3.452,2.226,4.15,4.146c1.878,5.183-1.925,10.06-6.852,10.066v-4.62H7.38v4.635H12V24c7.858,0,13.975-7.59,11.404-15.825c-1.124-3.598-3.98-6.455-7.58-7.58C7.59-1.976,0,4.144,0,12H4.647z"></path>
  <polygon points=".832 16.38 .832 19.365 .835 19.365 .836 19.365 3.817 19.365 3.817 16.38"></polygon>
</svg>